<?xml version="1.0" encoding="UTF-8" ?>
<!DOCTYPE svg PUBLIC "-//W3C//DTD SVG 1.1//EN" "http://www.w3.org/Graphics/SVG/1.1/DTD/svg11.dtd">
<svg width="1113pt" height="262pt" viewBox="0 0 1113 262" version="1.1" xmlns="http://www.w3.org/2000/svg">
<path fill="#fdfefe" d=" M 0.00 0.00 L 1113.00 0.00 L 1113.00 262.00 L 0.00 262.00 L 0.00 0.00 Z" />
<path fill="#a64ea6" d=" M 13.60 13.02 C 39.08 13.02 64.57 12.94 90.05 13.05 C 94.57 14.48 99.35 13.50 103.90 14.74 C 110.89 15.54 117.74 17.25 124.48 19.25 C 144.48 25.31 160.74 40.73 169.71 59.38 C 180.46 81.87 181.95 107.49 180.09 131.98 C 178.40 152.43 173.28 173.37 160.81 190.05 C 148.92 205.73 130.83 216.34 111.44 219.50 C 106.96 219.95 102.57 221.31 98.03 220.99 C 95.28 220.84 92.71 222.23 89.95 222.04 C 62.90 221.92 35.84 222.08 8.79 221.96 C 16.09 216.44 23.33 210.84 30.84 205.62 C 30.80 147.71 30.81 89.81 30.84 31.90 C 25.09 25.60 19.26 19.39 13.60 13.02 Z" />
<path fill="#03a3e9" d=" M 708.68 13.00 C 736.68 13.00 764.68 13.00 792.69 13.00 C 784.99 20.28 776.86 27.08 769.13 34.33 C 784.71 79.48 799.90 124.77 815.30 169.98 C 817.35 165.27 819.27 160.50 821.29 155.77 C 807.73 116.91 794.29 78.00 780.79 39.11 C 780.32 37.93 779.84 36.75 779.35 35.58 C 786.42 30.44 793.42 25.19 800.53 20.09 C 802.10 20.30 803.21 21.71 804.57 22.45 C 797.54 26.85 791.09 32.12 784.00 36.42 C 785.29 42.49 788.08 48.12 789.78 54.09 C 800.78 85.91 811.52 117.84 822.66 149.61 C 836.91 111.20 850.70 72.62 864.77 34.14 C 858.12 27.12 851.48 20.09 844.90 13.00 C 872.33 13.00 899.77 13.01 927.21 13.00 C 920.00 20.63 912.46 27.94 905.09 35.41 C 905.14 89.28 905.13 143.15 905.09 197.02 C 905.28 199.21 904.38 201.97 906.40 203.55 C 912.68 209.59 918.56 216.05 925.08 221.83 C 900.19 222.22 875.27 221.89 850.37 222.00 C 857.64 215.13 865.69 209.02 872.71 201.96 C 872.87 165.84 872.93 129.69 872.68 93.57 C 855.19 140.61 838.42 187.95 821.12 235.07 C 816.00 234.95 810.88 234.97 805.77 235.06 C 805.28 233.71 804.79 232.35 804.31 231.01 C 809.06 230.97 813.82 231.07 818.58 230.91 C 836.44 180.51 854.69 130.24 872.53 79.83 C 873.19 71.54 872.67 63.17 872.78 54.85 C 852.22 110.12 832.50 165.73 812.11 221.07 C 808.35 220.96 804.59 221.00 800.84 221.00 C 786.13 177.23 770.97 133.61 756.37 89.80 C 755.80 107.53 756.27 125.29 756.12 143.03 C 756.20 157.36 755.91 171.70 756.37 186.03 C 756.85 192.85 757.36 200.08 761.13 206.01 C 763.98 210.94 768.38 214.68 771.74 219.24 C 775.70 224.52 779.85 229.67 783.78 234.98 C 756.15 235.04 728.53 234.96 700.90 235.02 C 698.20 235.61 697.17 232.69 695.84 231.00 C 722.50 231.00 749.16 231.00 775.83 231.00 C 773.84 227.99 771.84 225.00 769.84 222.00 C 745.75 221.97 721.66 222.05 697.57 221.96 C 706.50 216.78 715.80 211.47 722.19 203.13 C 726.62 197.30 728.33 189.95 729.28 182.82 C 730.63 171.93 730.08 160.93 730.19 149.98 C 730.19 111.65 730.19 73.31 730.19 34.98 C 730.45 33.34 729.30 32.14 728.21 31.15 C 721.59 25.22 715.23 19.01 708.68 13.00 Z" />
<path fill="#81a0cc" d=" M 568.86 16.00 C 582.35 16.00 595.84 16.00 609.33 16.00 C 606.09 34.42 598.58 51.75 590.44 68.47 C 575.55 97.89 557.38 125.74 535.67 150.60 C 534.14 152.01 534.63 154.16 534.46 156.00 C 537.24 156.00 540.03 155.99 542.83 155.98 C 565.66 130.21 586.29 102.08 600.58 70.62 C 608.02 54.29 614.14 37.39 619.38 20.23 C 620.56 20.93 621.75 21.62 622.95 22.31 C 611.65 60.63 594.88 97.67 570.80 129.70 C 563.98 139.00 556.22 147.54 548.39 155.98 C 567.56 156.01 586.73 156.01 605.90 155.98 C 605.93 132.11 605.80 108.23 605.96 84.35 C 616.45 78.08 626.55 70.40 633.27 60.01 C 634.04 60.01 635.59 60.00 636.36 59.99 C 636.33 91.96 636.46 123.93 636.30 155.90 C 638.94 155.97 641.59 156.00 644.25 156.00 C 644.23 125.95 644.32 95.91 644.21 65.86 C 645.79 66.34 647.37 66.82 648.98 67.27 C 648.89 96.85 648.96 126.43 648.94 156.01 C 656.49 155.73 664.44 156.93 671.01 160.86 C 679.12 165.70 680.68 180.08 671.80 184.88 C 666.27 187.90 655.90 185.68 656.39 178.00 C 655.68 174.90 659.10 172.97 658.89 170.06 C 657.73 167.47 654.51 167.02 652.00 167.01 C 646.77 166.98 641.53 166.97 636.31 167.09 C 636.43 179.60 636.36 192.11 636.34 204.61 C 642.70 210.41 649.26 216.00 655.46 221.97 C 632.32 222.03 609.19 221.99 586.06 221.99 C 592.50 216.37 599.27 211.13 605.88 205.72 C 605.91 197.15 605.88 188.58 605.90 180.01 C 575.70 179.94 545.51 180.08 515.32 179.94 C 514.22 178.66 513.17 177.34 512.18 175.99 C 543.43 175.99 574.67 176.04 605.91 175.97 C 605.89 172.98 605.89 170.00 605.90 167.02 C 573.95 166.97 542.00 167.01 510.05 167.00 C 510.07 165.11 510.09 163.23 510.11 161.35 C 522.56 147.09 532.43 130.77 540.91 113.90 C 549.62 95.86 557.08 77.16 562.46 57.85 C 566.26 44.22 568.61 30.16 568.86 16.00 Z" />
<path fill="#03a3e9" d=" M 913.80 36.02 C 920.18 31.62 926.65 27.34 932.99 22.88 C 934.16 23.80 935.33 24.71 936.53 25.62 C 930.78 29.53 925.23 33.71 919.49 37.62 C 918.19 38.25 917.98 39.68 918.10 40.96 C 918.13 95.00 918.14 149.05 918.09 203.10 C 927.54 213.70 936.94 224.35 946.34 235.00 C 917.58 235.01 888.83 234.98 860.08 235.01 C 859.34 233.68 858.61 232.35 857.88 231.02 C 884.03 230.96 910.18 231.03 936.33 230.99 C 930.46 223.82 924.08 217.09 918.09 210.03 C 916.43 207.87 913.38 206.13 913.80 203.01 C 913.83 147.35 913.83 91.69 913.80 36.02 Z" />
<path fill="#fdfefe" d=" M 62.81 27.02 C 68.58 27.01 74.34 26.97 80.10 27.00 C 87.22 28.28 94.60 28.33 101.53 30.70 C 114.45 33.70 125.43 42.58 132.03 53.97 C 140.46 68.47 143.42 85.40 144.48 101.94 C 145.30 118.33 144.79 134.87 141.84 151.05 C 138.65 167.56 132.60 184.33 120.31 196.30 C 112.66 204.22 101.92 208.99 90.90 209.14 C 85.99 210.58 80.85 209.83 75.81 209.98 C 75.81 153.71 75.81 97.43 75.81 41.15 C 91.84 37.88 108.35 41.70 123.16 48.07 C 118.72 44.24 113.84 40.75 108.30 38.71 C 99.48 35.88 90.14 35.68 80.96 36.07 C 77.97 36.71 74.96 37.30 71.88 37.12 C 71.67 40.06 71.63 43.02 71.67 45.97 C 71.71 100.63 71.64 155.29 71.71 209.96 C 68.74 210.00 65.78 210.01 62.81 209.98 C 62.81 149.00 62.81 88.01 62.81 27.02 Z" />
<path fill="#a64ea6" d=" M 161.87 34.72 C 172.38 41.21 180.27 51.38 185.45 62.49 C 192.48 77.96 194.92 95.12 195.30 112.00 C 195.73 136.28 192.97 161.26 182.36 183.39 C 173.79 201.09 159.53 216.61 141.12 224.16 C 128.13 229.89 113.99 232.40 100.00 234.02 C 96.61 233.70 93.30 234.31 90.01 234.98 C 66.33 235.09 42.65 234.85 18.98 235.10 C 18.07 233.76 17.19 232.41 16.33 231.04 C 40.57 230.96 64.81 231.00 89.06 231.02 C 91.77 231.13 94.28 229.75 97.00 229.97 C 99.73 230.09 102.48 230.08 105.11 229.30 C 122.84 227.41 140.72 222.03 154.82 210.75 C 171.66 197.98 182.19 178.43 186.98 158.12 C 191.73 137.50 192.38 116.04 190.01 95.05 C 187.91 77.68 182.91 60.02 171.75 46.19 C 168.66 42.19 164.79 38.85 161.87 34.72 Z" />
<path fill="#fdfefe" d=" M 743.20 51.47 C 745.73 59.28 748.46 67.02 751.27 74.73 C 751.76 76.09 751.95 77.54 751.97 78.99 C 751.96 114.33 751.96 149.67 751.97 185.01 C 751.87 194.81 754.99 204.99 762.10 211.96 C 764.38 214.45 767.57 216.09 769.27 219.10 C 761.08 217.40 752.90 212.92 748.49 205.58 C 745.36 199.69 744.56 192.95 743.73 186.43 C 742.74 176.30 743.00 166.11 742.97 155.95 C 742.97 126.32 742.96 96.68 742.97 67.04 C 742.99 61.85 742.82 56.66 743.20 51.47 Z" />
<path fill="#a64ea6" d=" M 261.08 66.98 C 274.47 64.87 288.32 65.82 301.45 69.23 C 312.20 72.59 322.81 78.16 329.62 87.40 C 335.53 95.24 336.89 105.90 334.32 115.24 C 331.40 125.42 323.54 133.44 314.66 138.80 C 308.44 142.71 301.38 144.87 294.50 147.26 C 302.86 169.58 314.79 190.56 329.76 209.10 C 334.72 215.18 340.15 220.89 346.24 225.84 C 332.41 230.57 319.31 237.24 307.09 245.22 C 302.48 216.11 295.66 187.17 284.12 159.97 C 276.70 163.33 268.61 165.54 260.49 166.09 C 260.47 181.35 260.52 196.61 260.46 211.88 C 267.53 219.65 274.84 227.19 281.95 234.92 C 260.96 235.15 239.97 234.85 218.98 235.07 C 218.32 234.05 217.67 233.02 217.01 232.01 C 236.38 231.99 255.75 232.01 275.12 232.00 C 269.75 226.33 264.50 220.54 259.14 214.86 C 258.46 213.96 257.28 213.17 257.36 211.91 C 257.24 196.04 257.48 180.16 257.25 164.29 C 259.99 162.40 263.40 163.34 266.44 162.51 C 272.17 161.43 277.95 160.24 283.27 157.77 C 282.25 155.58 281.37 153.32 280.74 150.98 C 270.90 153.72 260.65 154.28 250.67 156.20 C 250.59 174.24 250.79 192.28 250.57 210.31 C 255.15 215.27 259.91 220.08 264.55 225.00 C 246.60 224.98 228.65 225.05 210.70 224.96 C 215.87 220.16 221.10 215.42 226.27 210.61 C 226.95 196.95 226.13 183.16 226.67 169.45 C 222.25 170.23 217.91 171.38 213.66 172.83 C 212.43 173.32 211.07 172.77 210.59 171.54 C 212.53 169.85 215.07 169.39 217.45 168.69 C 219.17 168.20 220.94 167.84 222.59 167.14 C 223.74 167.07 224.89 167.01 226.05 166.97 C 226.55 164.70 226.62 162.37 226.60 160.06 C 219.90 159.91 213.30 161.85 206.94 163.81 C 208.64 158.89 210.02 153.85 211.94 149.01 C 216.59 150.14 221.95 151.03 226.39 148.82 C 226.29 128.86 226.34 108.90 226.37 88.95 C 222.39 86.34 217.96 84.56 213.70 82.49 C 228.45 74.72 244.35 68.48 261.08 66.98 Z" />
<path fill="#a64ea6" d=" M 403.17 68.26 C 420.78 63.32 439.18 67.11 456.53 71.37 C 461.68 72.39 467.08 74.08 472.28 72.32 C 475.63 71.57 478.35 69.19 481.80 68.80 C 472.44 81.30 468.55 96.63 461.43 110.32 C 457.91 104.01 457.17 96.28 452.62 90.45 C 445.33 81.36 433.77 75.55 422.04 75.95 C 413.19 75.97 404.13 79.40 398.16 86.08 C 392.27 92.71 390.79 102.81 394.40 110.88 C 398.94 120.70 409.61 125.57 419.48 128.30 C 435.54 133.02 452.90 134.61 467.43 143.53 C 477.16 149.19 484.73 158.74 487.13 169.83 C 489.64 181.31 488.24 193.88 481.98 203.97 C 473.74 217.28 458.99 225.88 443.56 227.66 C 428.20 229.29 412.93 225.87 398.10 222.07 C 388.32 219.85 378.02 215.93 368.02 219.20 C 365.25 219.67 363.01 221.97 360.16 221.91 L 359.60 220.83 C 368.38 207.15 376.33 192.71 380.89 177.02 C 381.41 177.32 382.47 177.93 382.99 178.23 C 384.58 189.61 389.43 201.02 398.60 208.32 C 403.24 212.26 408.83 214.84 414.56 216.76 C 420.27 218.05 426.08 219.36 431.97 219.01 C 442.73 219.28 454.42 216.30 461.85 208.02 C 467.46 201.97 468.76 193.07 467.33 185.19 C 465.33 174.82 456.94 166.54 447.36 162.71 C 435.25 157.75 422.34 155.21 409.54 152.75 C 406.92 151.72 404.06 151.47 401.49 150.29 C 391.39 147.05 381.38 141.40 376.07 131.86 C 370.46 121.58 369.60 109.08 372.29 97.80 C 375.94 83.09 388.86 72.11 403.17 68.26 Z" />
<path fill="#03a3e9" d=" M 952.19 67.01 C 996.45 66.99 1040.71 67.00 1084.97 67.00 C 1084.95 68.65 1084.96 70.29 1084.97 71.94 C 1086.50 72.09 1088.19 71.72 1089.65 72.37 C 1091.58 74.34 1091.79 77.77 1090.11 79.96 C 1082.56 90.14 1075.61 100.88 1070.75 112.63 C 1068.91 112.63 1067.08 112.64 1065.26 112.69 C 1064.33 111.27 1063.71 109.72 1063.73 108.01 C 1062.16 107.42 1060.47 107.40 1058.84 107.37 C 1058.19 105.93 1057.56 104.49 1056.94 103.04 C 1056.32 103.02 1055.07 102.99 1054.45 102.97 C 1049.80 98.98 1044.91 95.25 1039.60 92.19 C 1032.72 89.68 1025.22 89.71 1018.00 90.16 C 1014.94 91.13 1011.73 91.12 1008.57 90.99 C 1008.56 105.00 1008.56 119.00 1008.57 133.00 C 1014.58 133.00 1020.59 133.00 1026.61 133.00 C 1031.74 125.92 1037.24 119.11 1042.33 112.00 C 1044.07 112.00 1045.82 112.01 1047.58 112.03 C 1047.59 112.52 1047.60 113.49 1047.61 113.98 C 1049.48 114.22 1051.35 114.59 1053.19 115.07 C 1053.67 134.39 1053.26 153.73 1053.40 173.06 C 1050.70 172.99 1047.44 173.29 1045.61 170.85 C 1045.54 169.67 1045.53 168.48 1045.59 167.30 C 1044.01 167.11 1042.21 166.98 1041.29 165.51 C 1038.78 162.35 1036.27 159.19 1033.79 156.01 C 1025.38 155.99 1016.97 156.00 1008.57 156.00 C 1008.56 174.00 1008.56 192.00 1008.57 210.00 C 1013.03 209.78 1017.65 210.64 1021.99 209.21 C 1032.31 208.89 1043.75 207.10 1051.21 199.19 C 1056.29 193.60 1059.62 186.69 1063.46 180.24 C 1065.29 180.22 1067.13 180.21 1068.98 180.19 C 1070.01 183.46 1070.00 187.24 1072.06 190.06 C 1072.60 188.90 1073.14 187.75 1073.68 186.59 C 1076.38 187.01 1080.45 185.93 1081.84 189.06 C 1087.48 201.03 1096.02 211.42 1105.63 220.43 C 1106.20 226.04 1101.80 230.48 1099.05 234.91 C 1053.75 235.12 1008.44 234.93 963.14 235.00 C 962.61 234.09 962.10 233.19 961.60 232.29 C 961.63 230.86 961.66 229.43 961.69 228.00 C 1005.42 227.99 1049.15 228.02 1092.88 227.98 C 1093.63 226.27 1094.63 224.68 1095.96 223.36 C 1094.65 222.26 1093.38 221.15 1092.11 220.03 C 1091.78 221.02 1091.47 222.01 1091.17 223.00 C 1044.84 222.99 998.52 223.01 952.19 222.99 C 952.17 221.44 952.17 219.88 952.16 218.33 C 957.22 214.73 962.01 210.76 967.05 207.13 C 968.04 206.19 969.70 205.39 969.66 203.81 C 969.69 188.15 969.64 172.48 969.68 156.81 C 968.59 157.08 967.52 157.37 966.47 157.68 C 961.23 159.04 956.81 163.13 951.08 162.07 C 949.98 160.11 949.81 157.89 949.99 155.70 C 948.48 155.41 946.94 155.30 945.43 155.28 C 945.35 153.66 945.26 152.05 945.12 150.45 C 947.17 142.93 952.91 136.46 960.47 134.20 C 963.50 133.47 966.55 132.70 969.70 132.93 C 969.64 117.10 969.65 101.27 969.69 85.44 C 963.74 80.99 958.12 76.10 952.17 71.64 C 952.17 70.10 952.17 68.55 952.19 67.01 Z" />
<path fill="#a64ea6" d=" M 466.40 112.72 C 472.31 99.24 479.32 86.30 486.00 73.21 C 487.06 73.82 488.12 74.43 489.18 75.05 C 481.19 87.37 476.24 101.32 469.20 114.16 C 468.50 113.80 467.10 113.08 466.40 112.72 Z" />
<path fill="#fdfefe" d=" M 258.44 76.66 C 272.92 72.83 290.14 74.90 301.08 85.93 C 312.09 96.52 311.97 115.73 301.87 126.89 C 295.72 133.83 287.07 137.78 278.47 140.75 C 272.56 142.56 266.53 143.96 260.44 145.06 C 260.47 125.79 260.61 106.52 260.38 87.25 C 265.19 86.19 270.06 85.70 275.00 85.98 C 286.30 85.57 296.59 91.15 305.20 97.97 C 302.18 91.64 295.93 87.44 289.43 85.27 C 279.38 81.97 268.58 82.59 258.30 84.27 C 257.03 85.09 257.38 86.71 257.30 87.98 C 257.39 106.92 257.32 125.86 257.33 144.81 C 255.10 145.20 252.89 145.70 250.67 146.17 C 250.74 123.87 250.49 101.56 250.79 79.26 C 253.29 78.25 255.82 77.33 258.44 76.66 Z" />
<path fill="#fdfefe" d=" M 998.32 82.31 C 1000.11 81.57 1001.97 80.86 1003.96 80.99 C 1010.99 81.03 1018.02 80.95 1025.06 81.02 C 1029.77 82.22 1034.83 81.80 1039.34 83.84 C 1036.11 84.59 1033.14 82.70 1029.93 82.97 C 1022.13 83.09 1014.33 82.86 1006.53 83.10 C 1004.90 84.59 1002.61 83.84 1000.67 83.92 C 1000.20 100.40 1000.36 116.91 1000.59 133.40 C 1000.03 133.25 998.92 132.97 998.36 132.83 C 998.40 115.99 998.47 99.15 998.32 82.31 Z" />
<path fill="#a64ea6" d=" M 416.40 82.64 C 419.47 81.49 422.80 82.15 426.00 81.98 C 437.78 81.32 450.24 88.07 454.63 99.32 C 452.47 98.27 450.88 96.46 449.12 94.88 C 441.73 88.40 431.94 84.08 421.97 85.04 C 416.01 85.73 410.09 88.59 406.56 93.56 C 403.57 97.66 402.63 103.16 404.01 108.04 C 405.21 112.03 407.93 115.34 410.80 118.28 C 412.75 120.28 415.32 121.72 416.71 124.25 C 410.45 121.72 404.34 117.51 401.56 111.13 C 398.80 104.60 399.62 96.64 403.75 90.86 C 406.83 86.74 411.45 83.93 416.40 82.64 Z" />
<path fill="#a64ea6" d=" M 333.90 82.78 C 348.09 95.22 349.21 118.90 337.76 133.53 C 330.68 142.93 320.03 148.58 309.52 153.31 C 312.23 161.29 315.37 169.14 319.40 176.55 C 330.33 196.32 344.96 214.56 364.14 226.84 C 367.15 227.29 369.94 225.42 372.92 225.12 C 384.42 223.98 395.47 228.04 406.51 230.58 C 420.28 234.47 434.86 236.64 449.05 233.84 C 463.64 231.22 476.95 222.59 485.70 210.69 C 494.75 198.60 497.37 182.19 493.25 167.74 C 491.16 160.15 486.39 153.75 481.46 147.76 C 489.69 153.03 495.30 161.96 497.44 171.42 C 500.28 184.91 497.75 199.58 489.95 211.02 C 480.51 224.64 465.44 234.37 449.03 236.93 C 434.62 239.65 419.79 237.46 405.85 233.29 C 393.86 230.40 381.02 225.01 368.80 229.78 C 366.28 231.67 363.22 229.53 360.53 231.26 C 358.25 232.28 355.73 232.61 353.50 233.74 C 339.65 238.50 326.35 244.96 314.06 252.94 C 313.13 252.34 312.45 251.57 312.01 250.62 C 324.32 242.59 337.62 236.06 351.53 231.29 C 352.52 230.97 353.52 230.63 354.51 230.29 C 356.56 229.57 358.67 229.10 360.81 228.76 C 360.20 227.79 359.42 226.97 358.49 226.31 C 336.99 211.09 321.62 188.68 310.92 164.90 C 308.80 160.53 307.28 155.90 305.08 151.56 C 315.14 147.21 325.47 142.39 332.81 133.95 C 340.98 125.27 344.55 112.52 342.04 100.87 C 340.58 94.34 337.38 88.42 333.90 82.78 Z" />
<path fill="#81a0cc" d=" M 1000.59 133.40 C 1000.36 116.91 1000.20 100.40 1000.67 83.92 C 1001.41 96.26 1000.80 108.65 1001.00 121.01 C 1000.83 125.13 1001.43 129.32 1000.59 133.40 Z" />
<path fill="#a64ea6" d=" M 379.17 143.24 C 380.62 143.93 382.09 144.65 383.52 145.40 C 387.03 150.94 393.57 153.28 399.48 155.29 C 411.02 158.66 422.79 161.31 434.45 164.24 C 437.74 165.43 441.15 166.25 444.50 167.25 C 448.96 168.98 453.70 170.45 457.35 173.70 C 460.05 175.97 461.83 179.10 463.11 182.34 C 460.10 180.97 458.26 178.07 455.57 176.26 C 452.54 173.96 448.99 172.56 445.48 171.20 C 444.99 171.10 444.02 170.91 443.54 170.81 C 440.97 169.50 438.03 169.36 435.40 168.25 C 426.41 166.19 417.46 163.97 408.52 161.75 C 400.68 159.15 392.28 157.40 385.48 152.46 C 382.35 150.23 380.65 146.67 379.17 143.24 Z" />
<path fill="#fdfefe" d=" M 965.47 147.76 C 966.89 146.85 969.87 146.24 970.12 148.63 C 964.48 149.76 958.90 151.11 953.52 153.12 C 956.77 150.12 961.15 148.47 965.47 147.76 Z" />
<path fill="#fdfefe" d=" M 998.32 147.08 C 1007.76 146.90 1017.21 147.05 1026.66 147.00 C 1027.03 147.50 1027.79 148.50 1028.16 149.00 C 1019.00 148.99 1009.83 149.02 1000.66 148.99 C 1000.50 169.35 1000.51 189.72 1000.66 210.08 C 1000.09 210.04 998.94 209.95 998.37 209.91 C 998.39 188.97 998.48 168.02 998.32 147.08 Z" />
<path fill="#a64ea6" d=" M 1000.66 210.08 C 1000.51 189.72 1000.50 169.35 1000.66 148.99 C 1000.88 169.34 1000.88 189.72 1000.66 210.08 Z" />
<path fill="#81a0cc" d=" M 676.67 160.87 C 684.72 162.69 690.47 170.84 690.05 178.97 C 689.81 185.55 685.88 192.21 679.49 194.46 C 673.72 196.20 667.39 194.16 662.69 190.68 C 662.63 190.18 662.52 189.20 662.47 188.71 C 667.28 190.89 672.83 193.52 678.09 191.13 C 685.53 188.10 688.70 178.59 685.50 171.45 C 683.20 167.42 679.52 164.47 676.67 160.87 Z" />
<path fill="#81a0cc" d=" M 644.23 178.02 C 645.79 178.01 647.37 178.00 648.95 178.00 C 648.94 187.01 648.92 196.03 648.96 205.04 C 657.52 214.98 666.21 224.83 674.51 234.99 C 647.27 235.03 620.03 234.94 592.80 235.04 C 591.58 233.72 590.38 232.38 589.21 231.03 C 614.60 230.95 640.00 231.05 665.40 230.98 C 658.89 223.26 652.32 215.59 645.72 207.94 C 644.71 206.88 644.12 205.50 644.26 204.02 C 644.21 195.35 644.31 186.69 644.23 178.02 Z" />
<path fill="#a64ea6" d=" M 391.37 182.96 C 392.23 183.00 393.94 183.07 394.80 183.11 C 396.97 194.77 404.07 205.57 414.44 211.50 C 416.22 212.46 418.08 213.39 419.45 214.94 C 414.16 213.62 409.01 211.25 404.91 207.61 C 404.80 207.12 404.59 206.15 404.49 205.66 C 403.97 205.49 402.94 205.15 402.42 204.98 C 401.10 204.69 400.42 203.39 399.59 202.47 C 395.20 196.82 392.64 189.96 391.37 182.96 Z" />
<path fill="#81a0cc" d=" M 402.42 204.98 C 402.94 205.15 403.97 205.49 404.49 205.66 C 404.59 206.15 404.80 207.12 404.91 207.61 C 403.61 208.34 401.47 206.25 402.42 204.98 Z" />
</svg>
